<svg xmlns="http://www.w3.org/2000/svg" xmlns:xlink="http://www.w3.org/1999/xlink" width="424" height="403" viewBox="0 0 424 403"><rect width="100%" height="100%" fill="#DDDDDD"/><path d="M91.42 206.57L103.96 206.57L103.96 193.09Q103.96 191.18 104.21 188.87L104.21 188.87L91.42 206.57ZM110.08 206.57L115.27 206.57L115.27 210.65Q115.27 211.22 114.90 211.63Q114.53 212.05 113.85 212.05L113.85 212.05L110.08 212.05L110.08 222.11L103.96 222.11L103.96 212.05L86.57 212.05Q85.86 212.05 85.32 211.60Q84.78 211.16 84.63 210.51L84.63 210.51L83.89 206.94L103.42 180.87L110.08 180.87L110.08 206.57ZM134.11 215.55L144.68 215.55Q145.82 215.55 146.49 216.19Q147.16 216.83 147.16 217.89L147.16 217.89L147.16 222.11L118.89 222.11L118.89 219.77Q118.89 219.06 119.19 218.27Q119.49 217.49 120.14 216.86L120.14 216.86L132.66 204.32Q134.22 202.73 135.46 201.27Q136.70 199.82 137.53 198.39Q138.36 196.97 138.80 195.50Q139.24 194.03 139.24 192.41L139.24 192.41Q139.24 190.93 138.81 189.80Q138.38 188.68 137.60 187.91Q136.82 187.14 135.72 186.75Q134.62 186.37 133.25 186.37L133.25 186.37Q132.00 186.37 130.93 186.72Q129.86 187.08 129.04 187.72Q128.21 188.36 127.64 189.22Q127.07 190.07 126.79 191.10L126.79 191.10Q126.30 192.41 125.53 192.84Q124.76 193.26 123.31 193.04L123.31 193.04L119.60 192.38Q120.03 189.42 121.26 187.18Q122.48 184.94 124.32 183.45Q126.16 181.95 128.54 181.19Q130.92 180.44 133.65 180.44L133.65 180.44Q136.50 180.44 138.87 181.28Q141.23 182.12 142.92 183.66Q144.60 185.20 145.54 187.36Q146.48 189.53 146.48 192.18L146.48 192.18Q146.48 194.46 145.81 196.40Q145.14 198.34 144.01 200.10Q142.89 201.87 141.38 203.52Q139.87 205.18 138.21 206.89L138.21 206.89L128.92 216.38Q130.26 215.98 131.59 215.76Q132.91 215.55 134.11 215.55L134.11 215.55ZM157.54 206.57L170.08 206.57L170.08 193.09Q170.08 191.18 170.33 188.87L170.33 188.87L157.54 206.57ZM176.20 206.57L181.39 206.57L181.39 210.65Q181.39 211.22 181.02 211.63Q180.65 212.05 179.97 212.05L179.97 212.05L176.20 212.05L176.20 222.11L170.08 222.11L170.08 212.05L152.69 212.05Q151.98 212.05 151.44 211.60Q150.90 211.16 150.75 210.51L150.75 210.51L150.01 206.94L169.54 180.87L176.20 180.87L176.20 206.57ZM226.68 212.67L222.94 216.35L213.28 206.69L203.54 216.41L199.80 212.73L209.55 202.95L200.26 193.66L203.96 189.96L213.25 199.25L222.49 190.01L226.25 193.72L216.99 202.98L226.68 212.67ZM251.36 206.57L263.90 206.57L263.90 193.09Q263.90 191.18 264.16 188.87L264.16 188.87L251.36 206.57ZM270.03 206.57L275.21 206.57L275.21 210.65Q275.21 211.22 274.84 211.63Q274.47 212.05 273.79 212.05L273.79 212.05L270.03 212.05L270.03 222.11L263.90 222.11L263.90 212.05L246.51 212.05Q245.80 212.05 245.26 211.60Q244.72 211.16 244.58 210.51L244.58 210.51L243.83 206.94L263.36 180.87L270.03 180.87L270.03 206.57ZM308.30 201.50L308.30 201.50Q308.30 206.89 307.15 210.86Q305.99 214.84 303.96 217.43Q301.92 220.03 299.14 221.29Q296.36 222.56 293.14 222.56L293.14 222.56Q289.92 222.56 287.17 221.29Q284.42 220.03 282.40 217.43Q280.37 214.84 279.23 210.86Q278.09 206.89 278.09 201.50L278.09 201.50Q278.09 196.09 279.23 192.12Q280.37 188.16 282.40 185.57Q284.42 182.97 287.17 181.71Q289.92 180.44 293.14 180.44L293.14 180.44Q296.36 180.44 299.14 181.71Q301.92 182.97 303.96 185.57Q305.99 188.16 307.15 192.12Q308.30 196.09 308.30 201.50ZM301.03 201.50L301.03 201.50Q301.03 197.03 300.38 194.09Q299.72 191.15 298.63 189.42Q297.53 187.68 296.10 186.98Q294.68 186.28 293.14 186.28L293.14 186.28Q291.63 186.28 290.22 186.98Q288.81 187.68 287.72 189.42Q286.64 191.15 286.00 194.09Q285.36 197.03 285.36 201.50L285.36 201.50Q285.36 205.97 286.00 208.91Q286.64 211.85 287.72 213.58Q288.81 215.32 290.22 216.02Q291.63 216.72 293.14 216.72L293.14 216.72Q294.68 216.72 296.10 216.02Q297.53 215.32 298.63 213.58Q299.72 211.85 300.38 208.91Q301.03 205.97 301.03 201.50ZM316.51 193.04L312.80 192.38Q313.23 189.42 314.46 187.18Q315.68 184.94 317.52 183.45Q319.36 181.95 321.74 181.19Q324.12 180.44 326.86 180.44L326.86 180.44Q329.71 180.44 332.00 181.25Q334.29 182.06 335.92 183.50Q337.54 184.94 338.41 186.88Q339.28 188.82 339.28 191.07L339.28 191.07Q339.28 193.04 338.84 194.53Q338.40 196.03 337.57 197.14Q336.74 198.25 335.52 199.02Q334.29 199.79 332.75 200.30L332.75 200.30Q336.46 201.47 338.28 203.87Q340.11 206.26 340.11 209.88L340.11 209.88Q340.11 212.96 338.97 215.32Q337.83 217.69 335.89 219.30Q333.95 220.91 331.40 221.74Q328.85 222.56 326.00 222.56L326.00 222.56Q322.89 222.56 320.59 221.85Q318.28 221.14 316.57 219.74Q314.86 218.34 313.66 216.32Q312.46 214.30 311.61 211.65L311.61 211.65L314.71 210.36Q315.94 209.85 317.01 210.09Q318.08 210.34 318.56 211.25L318.56 211.25Q319.07 212.24 319.69 213.21Q320.30 214.18 321.16 214.94Q322.01 215.69 323.16 216.16Q324.32 216.63 325.91 216.63L325.91 216.63Q327.71 216.63 329.05 216.05Q330.39 215.47 331.29 214.52Q332.18 213.58 332.63 212.43Q333.07 211.28 333.07 210.11L333.07 210.11Q333.07 208.63 332.75 207.41Q332.44 206.20 331.44 205.35Q330.45 204.49 328.58 204.01Q326.71 203.52 323.58 203.52L323.58 203.52L323.58 198.51Q326.17 198.48 327.88 198.02Q329.59 197.57 330.60 196.75Q331.61 195.94 332.01 194.80Q332.41 193.66 332.41 192.29L332.41 192.29Q332.41 189.39 330.79 187.88Q329.16 186.37 326.46 186.37L326.46 186.37Q325.20 186.37 324.15 186.72Q323.09 187.08 322.25 187.72Q321.41 188.36 320.84 189.22Q320.27 190.07 319.99 191.10L319.99 191.10Q319.50 192.41 318.72 192.84Q317.93 193.26 316.51 193.04L316.51 193.04Z" fill="#999999"/></svg>