<svg xmlns="http://www.w3.org/2000/svg" xmlns:xlink="http://www.w3.org/1999/xlink" width="667" height="400" viewBox="0 0 667 400"><rect width="100%" height="100%" fill="#DDDDDD"/><path d="M169.15 167.10L149.63 190.99L147.36 193.81Q149.27 192.86 151.48 192.33Q153.68 191.81 156.23 191.81L156.23 191.81Q159.96 191.81 163.49 193.04Q167.02 194.27 169.70 196.75Q172.38 199.23 174.02 202.91Q175.66 206.60 175.66 211.51L175.66 211.51Q175.66 216.11 173.98 220.13Q172.29 224.16 169.25 227.16Q166.20 230.17 161.90 231.90Q157.60 233.62 152.41 233.62L152.41 233.62Q147.13 233.62 142.95 231.94Q138.76 230.26 135.80 227.23Q132.85 224.21 131.28 219.95Q129.71 215.70 129.71 210.51L129.71 210.51Q129.71 205.87 131.59 200.98Q133.48 196.09 137.44 190.81L137.44 190.81L153.14 169.74Q153.96 168.65 155.53 167.88Q157.10 167.10 159.14 167.10L159.14 167.10L169.15 167.10ZM152.18 224.43L152.18 224.43Q154.87 224.43 157.12 223.52Q159.37 222.61 160.99 220.98Q162.60 219.34 163.51 217.13Q164.42 214.92 164.42 212.33L164.42 212.33Q164.42 209.51 163.56 207.26Q162.69 205.00 161.10 203.44Q159.51 201.87 157.28 201.05Q155.05 200.23 152.36 200.23L152.36 200.23Q149.68 200.23 147.50 201.14Q145.31 202.05 143.77 203.66Q142.22 205.28 141.35 207.48Q140.49 209.69 140.49 212.24L140.49 212.24Q140.49 214.97 141.24 217.22Q141.99 219.47 143.47 221.07Q144.95 222.66 147.13 223.55Q149.32 224.43 152.18 224.43ZM221.93 167.10L202.41 190.99L200.14 193.81Q202.05 192.86 204.26 192.33Q206.46 191.81 209.01 191.81L209.01 191.81Q212.74 191.81 216.27 193.04Q219.80 194.27 222.48 196.75Q225.16 199.23 226.80 202.91Q228.44 206.60 228.44 211.51L228.44 211.51Q228.44 216.11 226.76 220.13Q225.07 224.16 222.03 227.16Q218.98 230.17 214.68 231.90Q210.38 233.62 205.19 233.62L205.19 233.62Q199.91 233.62 195.73 231.94Q191.54 230.26 188.58 227.23Q185.63 224.21 184.06 219.95Q182.49 215.70 182.49 210.51L182.49 210.51Q182.49 205.87 184.37 200.98Q186.26 196.09 190.22 190.81L190.22 190.81L205.92 169.74Q206.74 168.65 208.31 167.88Q209.88 167.10 211.92 167.10L211.92 167.10L221.93 167.10ZM204.96 224.43L204.96 224.43Q207.65 224.43 209.90 223.52Q212.15 222.61 213.77 220.98Q215.38 219.34 216.29 217.13Q217.20 214.92 217.20 212.33L217.20 212.33Q217.20 209.51 216.34 207.26Q215.47 205.00 213.88 203.44Q212.29 201.87 210.06 201.05Q207.83 200.23 205.14 200.23L205.14 200.23Q202.46 200.23 200.28 201.14Q198.09 202.05 196.55 203.66Q195.00 205.28 194.13 207.48Q193.27 209.69 193.27 212.24L193.27 212.24Q193.27 214.97 194.02 217.22Q194.77 219.47 196.25 221.07Q197.73 222.66 199.91 223.55Q202.10 224.43 204.96 224.43ZM235.68 167.10L281.13 167.10L281.13 171.97Q281.13 174.16 280.67 175.50Q280.22 176.84 279.76 177.75L279.76 177.75L254.83 229.07Q254.06 230.67 252.65 231.78Q251.24 232.90 248.87 232.90L248.87 232.90L240.73 232.90L266.16 182.62Q267.02 181.07 267.87 179.78Q268.71 178.48 269.75 177.30L269.75 177.30L238.27 177.30Q237.22 177.30 236.45 176.52Q235.68 175.75 235.68 174.70L235.68 174.70L235.68 167.10ZM354.20 217.84L348.24 223.71L332.82 208.28L317.26 223.80L311.30 217.93L326.86 202.32L312.02 187.49L317.94 181.57L332.77 196.41L347.51 181.66L353.52 187.58L338.73 202.37L354.20 217.84ZM393.61 208.10L413.63 208.10L413.63 186.58Q413.63 183.53 414.04 179.84L414.04 179.84L393.61 208.10ZM423.41 208.10L431.69 208.10L431.69 214.61Q431.69 215.52 431.10 216.18Q430.51 216.84 429.41 216.84L429.41 216.84L423.41 216.84L423.41 232.90L413.63 232.90L413.63 216.84L385.87 216.84Q384.73 216.84 383.87 216.13Q383.00 215.42 382.78 214.38L382.78 214.38L381.59 208.69L412.76 167.06L423.41 167.06L423.41 208.10ZM484.51 200L484.51 200Q484.51 208.60 482.67 214.95Q480.83 221.29 477.58 225.43Q474.32 229.58 469.89 231.60Q465.45 233.62 460.31 233.62L460.31 233.62Q455.17 233.62 450.78 231.60Q446.39 229.58 443.16 225.43Q439.92 221.29 438.10 214.95Q436.28 208.60 436.28 200L436.28 200Q436.28 191.36 438.10 185.03Q439.92 178.71 443.16 174.57Q446.39 170.43 450.78 168.40Q455.17 166.38 460.31 166.38L460.31 166.38Q465.45 166.38 469.89 168.40Q474.32 170.43 477.58 174.57Q480.83 178.71 482.67 185.03Q484.51 191.36 484.51 200ZM472.91 200L472.91 200Q472.91 192.86 471.87 188.17Q470.82 183.48 469.07 180.71Q467.32 177.93 465.04 176.82Q462.77 175.70 460.31 175.70L460.31 175.70Q457.90 175.70 455.64 176.82Q453.39 177.93 451.66 180.71Q449.93 183.48 448.91 188.17Q447.89 192.86 447.89 200L447.89 200Q447.89 207.14 448.91 211.83Q449.93 216.52 451.66 219.29Q453.39 222.07 455.64 223.18Q457.90 224.30 460.31 224.30L460.31 224.30Q462.77 224.30 465.04 223.18Q467.32 222.07 469.07 219.29Q470.82 216.52 471.87 211.83Q472.91 207.14 472.91 200ZM537.29 200L537.29 200Q537.29 208.60 535.45 214.95Q533.61 221.29 530.36 225.43Q527.10 229.58 522.67 231.60Q518.23 233.62 513.09 233.62L513.09 233.62Q507.95 233.62 503.56 231.60Q499.17 229.58 495.94 225.43Q492.70 221.29 490.88 214.95Q489.06 208.60 489.06 200L489.06 200Q489.06 191.36 490.88 185.03Q492.70 178.71 495.94 174.57Q499.17 170.43 503.56 168.40Q507.95 166.38 513.09 166.38L513.09 166.38Q518.23 166.38 522.67 168.40Q527.10 170.43 530.36 174.57Q533.61 178.71 535.45 185.03Q537.29 191.36 537.29 200ZM525.69 200L525.69 200Q525.69 192.86 524.65 188.17Q523.60 183.48 521.85 180.71Q520.10 177.93 517.82 176.82Q515.55 175.70 513.09 175.70L513.09 175.70Q510.68 175.70 508.42 176.82Q506.17 177.93 504.44 180.71Q502.71 183.48 501.69 188.17Q500.67 192.86 500.67 200L500.67 200Q500.67 207.14 501.69 211.83Q502.71 216.52 504.44 219.29Q506.17 222.07 508.42 223.18Q510.68 224.30 513.09 224.30L513.09 224.30Q515.55 224.30 517.82 223.18Q520.10 222.07 521.85 219.29Q523.60 216.52 524.65 211.83Q525.69 207.14 525.69 200Z" fill="#999999"/></svg>