<svg width="32" height="17" viewBox="0 0 32 17" fill="none" xmlns="http://www.w3.org/2000/svg">
<rect x="31.875" y="2.29877" width="11.8937" height="2.29705" transform="rotate(180 31.875 2.29877)" fill="#F9F9F9"/>
<rect width="11.7929" height="2.31774" transform="matrix(-0.873426 -0.486956 0.513158 -0.858294 29.7343 10.1088)" fill="#F9F9F9"/>
<rect width="11.5887" height="2.35858" transform="matrix(-0.513158 -0.858294 0.873426 -0.486957 23.1545 15.6218)" fill="#F9F9F9"/>
<rect x="14.7481" y="17" width="11.4852" height="2.37873" transform="rotate(-90 14.7481 17)" fill="#F9F9F9"/>
<rect width="11.5887" height="2.35858" transform="matrix(0.513158 -0.858294 0.873426 0.486956 6.74121 14.0137)" fill="#F9F9F9"/>
<rect width="11.7929" height="2.31774" transform="matrix(0.873426 -0.486957 0.513158 0.858294 1.35553 7.6601)" fill="#F9F9F9"/>
<rect y="0.00189209" width="11.8937" height="2.29705" fill="#F9F9F9"/>
<rect width="7.44447" height="2.48203" transform="matrix(-0.671526 0.740981 -0.763785 -0.64547 21.8297 1.64215)" fill="#F9F9F9"/>
<rect width="7.5193" height="2.69876" transform="matrix(0.71935 0.694648 -0.71935 0.694648 11.8882 0)" fill="#F9F9F9"/>
</svg>
