<svg width="151" height="30" viewBox="0 0 151 30" fill="none" xmlns="http://www.w3.org/2000/svg">
<path d="M0.32 29V9.68H5.56V29H0.32ZM12.92 29V17.6C12.92 16.48 12.56 15.6133 11.84 15C11.1467 14.36 10.28 14.04 9.24 14.04C8.54667 14.04 7.92 14.1867 7.36 14.48C6.8 14.7467 6.36 15.1467 6.04 15.68C5.72 16.2133 5.56 16.8533 5.56 17.6L3.52 16.6C3.52 15.1067 3.84 13.8133 4.48 12.72C5.14667 11.6267 6.04 10.7867 7.16 10.2C8.28 9.58667 9.54667 9.28 10.96 9.28C12.2933 9.28 13.5067 9.58667 14.6 10.2C15.6933 10.7867 16.56 11.6267 17.2 12.72C17.84 13.7867 18.16 15.08 18.16 16.6V29H12.92ZM25.52 29V17.6C25.52 16.48 25.16 15.6133 24.44 15C23.7467 14.36 22.88 14.04 21.84 14.04C21.1733 14.04 20.5467 14.1867 19.96 14.48C19.4 14.7467 18.96 15.1467 18.64 15.68C18.32 16.2133 18.16 16.8533 18.16 17.6L15.16 16.88C15.2667 15.3333 15.68 14 16.4 12.88C17.12 11.7333 18.0667 10.8533 19.24 10.24C20.4133 9.6 21.72 9.28 23.16 9.28C24.6 9.28 25.8933 9.58667 27.04 10.2C28.1867 10.7867 29.0933 11.64 29.76 12.76C30.4267 13.88 30.76 15.2133 30.76 16.76V29H25.52ZM43.0875 29.4C41.3275 29.4 39.7408 28.96 38.3275 28.08C36.9142 27.2 35.8075 26 35.0075 24.48C34.2075 22.96 33.8075 21.2533 33.8075 19.36C33.8075 17.44 34.2075 15.72 35.0075 14.2C35.8075 12.68 36.9142 11.48 38.3275 10.6C39.7408 9.72 41.3275 9.28 43.0875 9.28C44.4742 9.28 45.7142 9.56 46.8075 10.12C47.9008 10.68 48.7675 11.4667 49.4075 12.48C50.0742 13.4667 50.4342 14.5867 50.4875 15.84V22.8C50.4342 24.08 50.0742 25.2133 49.4075 26.2C48.7675 27.1867 47.9008 27.9733 46.8075 28.56C45.7142 29.12 44.4742 29.4 43.0875 29.4ZM44.0475 24.56C45.5142 24.56 46.7008 24.08 47.6075 23.12C48.5142 22.1333 48.9675 20.8667 48.9675 19.32C48.9675 18.3067 48.7542 17.4133 48.3275 16.64C47.9275 15.84 47.3542 15.2267 46.6075 14.8C45.8875 14.3467 45.0342 14.12 44.0475 14.12C43.0875 14.12 42.2342 14.3467 41.4875 14.8C40.7675 15.2267 40.1942 15.84 39.7675 16.64C39.3675 17.4133 39.1675 18.3067 39.1675 19.32C39.1675 20.36 39.3675 21.28 39.7675 22.08C40.1942 22.8533 40.7675 23.4667 41.4875 23.92C42.2342 24.3467 43.0875 24.56 44.0475 24.56ZM48.6875 29V23.8L49.5275 19.08L48.6875 14.44V9.68H53.8875V29H48.6875ZM71.5231 29V17.92C71.5231 16.7733 71.1631 15.84 70.4431 15.12C69.7231 14.4 68.7898 14.04 67.6431 14.04C66.8965 14.04 66.2298 14.2 65.6431 14.52C65.0565 14.84 64.5898 15.2933 64.2431 15.88C63.9231 16.4667 63.7631 17.1467 63.7631 17.92L61.7231 16.88C61.7231 15.36 62.0431 14.04 62.6831 12.92C63.3498 11.7733 64.2565 10.88 65.4031 10.24C66.5765 9.6 67.8965 9.28 69.3631 9.28C70.7765 9.28 72.0431 9.64 73.1631 10.36C74.2831 11.0533 75.1631 11.9733 75.8031 13.12C76.4431 14.24 76.7631 15.4533 76.7631 16.76V29H71.5231ZM58.5231 29V9.68H63.7631V29H58.5231ZM89.1441 29.4C87.3574 29.4 85.7574 28.96 84.3441 28.08C82.9307 27.2 81.8107 26 80.9841 24.48C80.1841 22.96 79.7841 21.2533 79.7841 19.36C79.7841 17.44 80.1841 15.72 80.9841 14.2C81.8107 12.68 82.9174 11.48 84.3041 10.6C85.7174 9.72 87.3307 9.28 89.1441 9.28C90.5307 9.28 91.7707 9.56 92.8641 10.12C93.9841 10.68 94.8774 11.4667 95.5441 12.48C96.2374 13.4667 96.6107 14.5867 96.6641 15.84V22.72C96.6107 23.9733 96.2507 25.1067 95.5841 26.12C94.9174 27.1333 94.0241 27.9333 92.9041 28.52C91.7841 29.1067 90.5307 29.4 89.1441 29.4ZM90.0241 24.56C91.0107 24.56 91.8641 24.3467 92.5841 23.92C93.3307 23.4667 93.9041 22.8533 94.3041 22.08C94.7307 21.28 94.9441 20.36 94.9441 19.32C94.9441 18.3067 94.7307 17.4133 94.3041 16.64C93.9041 15.84 93.3307 15.2267 92.5841 14.8C91.8641 14.3467 91.0241 14.12 90.0641 14.12C89.0774 14.12 88.2107 14.3467 87.4641 14.8C86.7441 15.2533 86.1707 15.8667 85.7441 16.64C85.3441 17.4133 85.1441 18.3067 85.1441 19.32C85.1441 20.36 85.3441 21.28 85.7441 22.08C86.1707 22.8533 86.7574 23.4667 87.5041 23.92C88.2507 24.3467 89.0907 24.56 90.0241 24.56ZM99.8641 29H94.6641V23.8L95.5041 19.08L94.6241 14.44V0.079998H99.8641V29ZM104.5 29V9.68H109.74V29H104.5ZM109.74 18.32L107.7 16.96C107.94 14.5867 108.633 12.72 109.78 11.36C110.926 9.97333 112.58 9.28 114.74 9.28C115.673 9.28 116.513 9.44 117.26 9.76C118.006 10.0533 118.686 10.5467 119.3 11.24L116.02 15C115.726 14.68 115.366 14.44 114.94 14.28C114.54 14.12 114.073 14.04 113.54 14.04C112.42 14.04 111.5 14.4 110.78 15.12C110.086 15.8133 109.74 16.88 109.74 18.32ZM129.673 29.4C127.727 29.4 125.967 28.96 124.393 28.08C122.847 27.1733 121.607 25.96 120.673 24.44C119.767 22.8933 119.313 21.1733 119.313 19.28C119.313 17.3867 119.767 15.6933 120.673 14.2C121.58 12.68 122.82 11.48 124.393 10.6C125.967 9.69333 127.713 9.24 129.633 9.24C131.607 9.24 133.367 9.69333 134.913 10.6C136.487 11.48 137.727 12.68 138.633 14.2C139.54 15.6933 139.993 17.3867 139.993 19.28C139.993 21.1733 139.54 22.8933 138.633 24.44C137.727 25.96 136.487 27.1733 134.913 28.08C133.367 28.96 131.62 29.4 129.673 29.4ZM129.633 24.52C130.62 24.52 131.487 24.3067 132.233 23.88C133.007 23.4267 133.593 22.8133 133.993 22.04C134.42 21.24 134.633 20.3333 134.633 19.32C134.633 18.3067 134.42 17.4133 133.993 16.64C133.567 15.8667 132.98 15.2667 132.233 14.84C131.487 14.3867 130.62 14.16 129.633 14.16C128.673 14.16 127.82 14.3867 127.073 14.84C126.327 15.2667 125.74 15.8667 125.313 16.64C124.887 17.4133 124.673 18.3067 124.673 19.32C124.673 20.3333 124.887 21.24 125.313 22.04C125.74 22.8133 126.327 23.4267 127.073 23.88C127.82 24.3067 128.673 24.52 129.633 24.52Z" fill="#141E37"/>
<path d="M146.967 29.4C146.007 29.4 145.22 29.08 144.607 28.44C143.994 27.8 143.687 27.0133 143.687 26.08C143.687 25.1467 143.994 24.36 144.607 23.72C145.22 23.08 146.007 22.76 146.967 22.76C147.9 22.76 148.674 23.08 149.287 23.72C149.9 24.36 150.207 25.1467 150.207 26.08C150.207 27.0133 149.9 27.8 149.287 28.44C148.674 29.08 147.9 29.4 146.967 29.4Z" fill="#D5C0A4"/>
</svg>
