<svg xmlns="http://www.w3.org/2000/svg" xmlns:xlink="http://www.w3.org/1999/xlink" width="469" height="823" viewBox="0 0 469 823"><rect width="100%" height="100%" fill="#DDDDDD"/><path d="M101.22 417.11L115.08 417.11L115.08 402.21Q115.08 400.10 115.37 397.55L115.37 397.55L101.22 417.11ZM121.86 417.11L127.59 417.11L127.59 421.61Q127.59 422.24 127.18 422.70Q126.77 423.15 126.01 423.15L126.01 423.15L121.86 423.15L121.86 434.27L115.08 434.27L115.08 423.15L95.87 423.15Q95.08 423.15 94.48 422.67Q93.88 422.18 93.73 421.45L93.73 421.45L92.91 417.52L114.49 388.69L121.86 388.69L121.86 417.11ZM159.15 388.73L145.64 405.26L144.06 407.22Q145.39 406.55 146.91 406.19Q148.44 405.83 150.21 405.83L150.21 405.83Q152.79 405.83 155.23 406.68Q157.67 407.53 159.53 409.25Q161.39 410.96 162.52 413.52Q163.66 416.07 163.66 419.47L163.66 419.47Q163.66 422.65 162.49 425.44Q161.33 428.23 159.22 430.31Q157.10 432.38 154.13 433.58Q151.15 434.78 147.56 434.78L147.56 434.78Q143.91 434.78 141.01 433.61Q138.11 432.45 136.06 430.35Q134.02 428.26 132.93 425.31Q131.84 422.37 131.84 418.78L131.84 418.78Q131.84 415.56 133.15 412.18Q134.46 408.79 137.20 405.14L137.20 405.14L148.06 390.55Q148.63 389.80 149.72 389.26Q150.80 388.73 152.22 388.73L152.22 388.73L159.15 388.73ZM147.40 428.42L147.40 428.42Q149.26 428.42 150.82 427.79Q152.38 427.16 153.50 426.02Q154.62 424.89 155.25 423.36Q155.88 421.83 155.88 420.04L155.88 420.04Q155.88 418.08 155.28 416.52Q154.68 414.96 153.58 413.88Q152.47 412.79 150.93 412.22Q149.39 411.66 147.53 411.66L147.53 411.66Q145.67 411.66 144.16 412.29Q142.65 412.92 141.58 414.04Q140.50 415.15 139.91 416.68Q139.31 418.21 139.31 419.97L139.31 419.97Q139.31 421.86 139.83 423.42Q140.35 424.98 141.37 426.08Q142.39 427.19 143.91 427.80Q145.42 428.42 147.40 428.42ZM176.13 402.40L176.13 402.40Q176.13 406.21 178.10 408.21Q180.07 410.21 183.69 410.21L183.69 410.21Q185.58 410.21 187.06 409.61Q188.54 409.01 189.55 407.97Q190.56 406.93 191.08 405.51Q191.60 404.10 191.60 402.46L191.60 402.46Q191.60 400.60 191.03 399.14Q190.46 397.67 189.42 396.66Q188.38 395.66 186.95 395.12Q185.52 394.58 183.82 394.58L183.82 394.58Q182.05 394.58 180.64 395.17Q179.22 395.75 178.21 396.79Q177.20 397.83 176.67 399.26Q176.13 400.70 176.13 402.40ZM172.32 434.27L186.46 416.60Q187.00 415.94 187.47 415.31Q187.94 414.68 188.38 414.05L188.38 414.05Q186.81 415.06 184.92 415.58Q183.03 416.10 180.95 416.10L180.95 416.10Q178.59 416.10 176.32 415.28Q174.05 414.46 172.29 412.81Q170.52 411.15 169.44 408.71Q168.35 406.27 168.35 403.00L168.35 403.00Q168.35 399.94 169.48 397.26Q170.62 394.58 172.67 392.57Q174.71 390.55 177.58 389.39Q180.45 388.22 183.91 388.22L183.91 388.22Q187.41 388.22 190.20 389.32Q192.98 390.43 194.95 392.41Q196.92 394.40 197.98 397.17Q199.03 399.94 199.03 403.25L199.03 403.25Q199.03 405.36 198.67 407.25Q198.31 409.14 197.65 410.89Q196.98 412.63 196.04 414.30Q195.09 415.97 193.93 417.61L193.93 417.61L183.50 432.48Q182.97 433.24 181.90 433.75Q180.82 434.27 179.47 434.27L179.47 434.27L172.32 434.27ZM250.72 423.85L246.60 427.91L235.92 417.23L225.14 427.97L221.02 423.91L231.79 413.11L221.52 402.84L225.62 398.74L235.89 409.01L246.09 398.81L250.25 402.90L240.01 413.14L250.72 423.85ZM287.70 428.70L287.70 428.70Q289.63 428.70 291.07 428.15Q292.52 427.60 293.52 426.62Q294.51 425.64 295.01 424.29Q295.52 422.93 295.52 421.36L295.52 421.36Q295.52 417.61 293.44 415.69Q291.36 413.77 287.70 413.77L287.70 413.77Q284.05 413.77 281.97 415.69Q279.89 417.61 279.89 421.36L279.89 421.36Q279.89 422.93 280.40 424.29Q280.90 425.64 281.89 426.62Q282.88 427.60 284.33 428.15Q285.78 428.70 287.70 428.70ZM287.70 394.08L287.70 394.08Q285.97 394.08 284.71 394.62Q283.45 395.15 282.62 396.05Q281.78 396.95 281.39 398.11Q280.99 399.28 280.99 400.57L280.99 400.57Q280.99 401.92 281.32 403.20Q281.66 404.48 282.44 405.47Q283.23 406.46 284.52 407.06Q285.81 407.66 287.70 407.66L287.70 407.66Q289.59 407.66 290.89 407.06Q292.18 406.46 292.96 405.47Q293.75 404.48 294.08 403.20Q294.41 401.92 294.41 400.57L294.41 400.57Q294.41 399.28 294.00 398.11Q293.59 396.95 292.78 396.05Q291.96 395.15 290.70 394.62Q289.44 394.08 287.70 394.08ZM295.39 410.52L295.39 410.52Q299.55 411.88 301.53 414.67Q303.52 417.45 303.52 421.49L303.52 421.49Q303.52 424.51 302.37 426.97Q301.22 429.42 299.14 431.16Q297.06 432.89 294.15 433.83Q291.23 434.78 287.70 434.78L287.70 434.78Q284.18 434.78 281.26 433.83Q278.35 432.89 276.27 431.16Q274.19 429.42 273.04 426.97Q271.89 424.51 271.89 421.49L271.89 421.49Q271.89 417.45 273.88 414.67Q275.86 411.88 280.02 410.52L280.02 410.52Q276.71 409.14 275.06 406.59Q273.40 404.03 273.40 400.44L273.40 400.44Q273.40 397.86 274.46 395.62Q275.51 393.39 277.40 391.73Q279.29 390.08 281.92 389.15Q284.55 388.22 287.70 388.22L287.70 388.22Q290.85 388.22 293.48 389.15Q296.11 390.08 298.00 391.73Q299.89 393.39 300.95 395.62Q302.00 397.86 302.00 400.44L302.00 400.44Q302.00 404.03 300.35 406.59Q298.70 409.14 295.39 410.52ZM325.19 427.03L336.88 427.03Q338.14 427.03 338.88 427.74Q339.62 428.45 339.62 429.61L339.62 429.61L339.62 434.27L308.37 434.27L308.37 431.69Q308.37 430.90 308.70 430.04Q309.03 429.17 309.75 428.48L309.75 428.48L323.58 414.62Q325.31 412.85 326.68 411.25Q328.06 409.64 328.97 408.07Q329.88 406.49 330.37 404.87Q330.86 403.25 330.86 401.45L330.86 401.45Q330.86 399.81 330.39 398.57Q329.91 397.32 329.05 396.47Q328.18 395.62 326.97 395.20Q325.76 394.77 324.24 394.77L324.24 394.77Q322.86 394.77 321.68 395.17Q320.50 395.56 319.58 396.27Q318.67 396.98 318.04 397.92Q317.41 398.87 317.09 400.00L317.09 400.00Q316.56 401.45 315.71 401.92Q314.86 402.40 313.25 402.14L313.25 402.14L309.16 401.42Q309.63 398.14 310.98 395.67Q312.34 393.20 314.37 391.54Q316.40 389.89 319.03 389.06Q321.66 388.22 324.68 388.22L324.68 388.22Q327.83 388.22 330.45 389.15Q333.06 390.08 334.92 391.78Q336.78 393.48 337.82 395.88Q338.86 398.27 338.86 401.20L338.86 401.20Q338.86 403.72 338.12 405.86Q337.38 408.00 336.13 409.96Q334.89 411.91 333.22 413.74Q331.55 415.56 329.72 417.45L329.72 417.45L319.46 427.94Q320.94 427.50 322.40 427.27Q323.87 427.03 325.19 427.03L325.19 427.03ZM350.01 402.14L345.92 401.42Q346.39 398.14 347.74 395.67Q349.10 393.20 351.13 391.54Q353.16 389.89 355.79 389.06Q358.42 388.22 361.45 388.22L361.45 388.22Q364.60 388.22 367.13 389.12Q369.67 390.02 371.46 391.61Q373.26 393.20 374.22 395.34Q375.18 397.48 375.18 399.97L375.18 399.97Q375.18 402.14 374.69 403.80Q374.20 405.45 373.29 406.68Q372.38 407.91 371.02 408.76Q369.67 409.61 367.97 410.18L367.97 410.18Q372.06 411.47 374.08 414.11Q376.09 416.76 376.09 420.76L376.09 420.76Q376.09 424.16 374.83 426.78Q373.57 429.39 371.43 431.17Q369.29 432.95 366.47 433.87Q363.65 434.78 360.50 434.78L360.50 434.78Q357.07 434.78 354.52 433.99Q351.96 433.20 350.07 431.66Q348.18 430.12 346.86 427.88Q345.54 425.64 344.59 422.71L344.59 422.71L348.03 421.30Q349.38 420.73 350.56 421.00Q351.74 421.26 352.28 422.27L352.28 422.27Q352.85 423.38 353.52 424.45Q354.20 425.52 355.15 426.35Q356.09 427.19 357.37 427.71Q358.64 428.23 360.41 428.23L360.41 428.23Q362.39 428.23 363.87 427.58Q365.35 426.94 366.34 425.90Q367.34 424.86 367.82 423.58Q368.31 422.30 368.31 421.01L368.31 421.01Q368.31 419.38 367.97 418.04Q367.62 416.70 366.52 415.75Q365.41 414.81 363.35 414.27Q361.29 413.74 357.82 413.74L357.82 413.74L357.82 408.19Q360.69 408.16 362.58 407.66Q364.47 407.15 365.59 406.26Q366.71 405.36 367.15 404.10Q367.59 402.84 367.59 401.33L367.59 401.33Q367.59 398.11 365.79 396.44Q364.00 394.77 361.00 394.77L361.00 394.77Q359.62 394.77 358.45 395.17Q357.29 395.56 356.36 396.27Q355.43 396.98 354.80 397.92Q354.17 398.87 353.85 400.00L353.85 400.00Q353.32 401.45 352.45 401.92Q351.59 402.40 350.01 402.14L350.01 402.14Z" fill="#999999"/></svg>