<svg xmlns="http://www.w3.org/2000/svg" xmlns:xlink="http://www.w3.org/1999/xlink" width="785" height="341" viewBox="0 0 785 341"><rect width="100%" height="100%" fill="#DDDDDD"/><path d="M155.12 131.82L208.57 131.82L208.57 137.54Q208.57 140.11 208.03 141.69Q207.50 143.27 206.96 144.34L206.96 144.34L177.64 204.69Q176.73 206.56 175.08 207.87Q173.42 209.18 170.64 209.18L170.64 209.18L161.06 209.18L190.97 150.06Q191.98 148.24 192.97 146.72Q193.96 145.19 195.19 143.80L195.19 143.80L158.17 143.80Q156.94 143.80 156.03 142.89Q155.12 141.98 155.12 140.75L155.12 140.75L155.12 131.82ZM243.24 199.71L243.24 199.71Q246.50 199.71 248.96 198.77Q251.42 197.84 253.11 196.18Q254.79 194.52 255.65 192.22Q256.50 189.92 256.50 187.25L256.50 187.25Q256.50 180.88 252.97 177.62Q249.44 174.35 243.24 174.35L243.24 174.35Q237.03 174.35 233.50 177.62Q229.97 180.88 229.97 187.25L229.97 187.25Q229.97 189.92 230.82 192.22Q231.68 194.52 233.36 196.18Q235.05 197.84 237.51 198.77Q239.97 199.71 243.24 199.71ZM243.24 140.91L243.24 140.91Q240.29 140.91 238.15 141.82Q236.01 142.73 234.59 144.26Q233.18 145.78 232.51 147.76Q231.84 149.74 231.84 151.94L231.84 151.94Q231.84 154.24 232.40 156.40Q232.96 158.57 234.30 160.25Q235.64 161.94 237.83 162.96Q240.03 163.97 243.24 163.97L243.24 163.97Q246.45 163.97 248.64 162.96Q250.83 161.94 252.17 160.25Q253.51 158.57 254.07 156.40Q254.63 154.24 254.63 151.94L254.63 151.94Q254.63 149.74 253.94 147.76Q253.24 145.78 251.85 144.26Q250.46 142.73 248.32 141.82Q246.18 140.91 243.24 140.91ZM256.29 168.84L256.29 168.84Q263.35 171.14 266.72 175.88Q270.09 180.61 270.09 187.46L270.09 187.46Q270.09 192.60 268.14 196.77Q266.19 200.94 262.66 203.88Q259.12 206.83 254.18 208.43Q249.23 210.04 243.24 210.04L243.24 210.04Q237.24 210.04 232.29 208.43Q227.35 206.83 223.81 203.88Q220.28 200.94 218.33 196.77Q216.38 192.60 216.38 187.46L216.38 187.46Q216.38 180.61 219.75 175.88Q223.12 171.14 230.18 168.84L230.18 168.84Q224.56 166.49 221.75 162.15Q218.95 157.82 218.95 151.72L218.95 151.72Q218.95 147.33 220.74 143.54Q222.53 139.74 225.74 136.93Q228.95 134.12 233.42 132.54Q237.89 130.96 243.24 130.96L243.24 130.96Q248.59 130.96 253.05 132.54Q257.52 134.12 260.73 136.93Q263.94 139.74 265.73 143.54Q267.52 147.33 267.52 151.72L267.52 151.72Q267.52 157.82 264.72 162.15Q261.91 166.49 256.29 168.84ZM298.71 143.80L295.99 159.91Q298.55 159.37 300.91 159.13Q303.26 158.89 305.46 158.89L305.46 158.89Q311.55 158.89 316.21 160.71Q320.86 162.53 324.02 165.74Q327.18 168.95 328.78 173.26Q330.39 177.56 330.39 182.54L330.39 182.54Q330.39 188.69 328.22 193.77Q326.05 198.85 322.20 202.47Q318.35 206.08 313.08 208.06Q307.81 210.04 301.60 210.04L301.60 210.04Q297.97 210.04 294.70 209.29Q291.44 208.54 288.58 207.28Q285.71 206.02 283.28 204.39Q280.85 202.76 278.92 200.94L278.92 200.94L282.99 195.32Q284.27 193.50 286.36 193.50L286.36 193.50Q287.69 193.50 289.08 194.36Q290.48 195.22 292.27 196.23Q294.06 197.25 296.49 198.11Q298.93 198.96 302.35 198.96L302.35 198.96Q305.99 198.96 308.77 197.78Q311.55 196.61 313.40 194.49Q315.25 192.38 316.18 189.47Q317.12 186.55 317.12 183.13L317.12 183.13Q317.12 176.81 313.45 173.26Q309.79 169.70 302.62 169.70L302.62 169.70Q297.11 169.70 291.33 171.73L291.33 171.73L283.09 169.38L289.51 131.82L327.71 131.82L327.71 137.44Q327.71 140.27 325.95 142.04Q324.18 143.80 319.95 143.80L319.95 143.80L298.71 143.80ZM418.61 191.47L411.60 198.37L393.46 180.24L375.17 198.48L368.16 191.58L386.45 173.23L369.01 155.79L375.97 148.83L393.41 166.27L410.74 148.94L417.81 155.89L400.42 173.28L418.61 191.47ZM463.12 154.61L456.16 153.38Q456.97 147.82 459.27 143.62Q461.57 139.42 465.02 136.61Q468.47 133.80 472.94 132.38Q477.40 130.96 482.54 130.96L482.54 130.96Q487.89 130.96 492.20 132.49Q496.50 134.01 499.55 136.71Q502.60 139.42 504.23 143.05Q505.87 146.69 505.87 150.92L505.87 150.92Q505.87 154.61 505.04 157.42Q504.21 160.23 502.66 162.31Q501.10 164.40 498.80 165.85Q496.50 167.29 493.61 168.25L493.61 168.25Q500.57 170.45 503.99 174.94Q507.42 179.43 507.42 186.23L507.42 186.23Q507.42 192.01 505.28 196.45Q503.14 200.89 499.50 203.91Q495.86 206.93 491.07 208.48Q486.29 210.04 480.94 210.04L480.94 210.04Q475.10 210.04 470.77 208.70Q466.44 207.36 463.23 204.74Q460.02 202.12 457.77 198.32Q455.52 194.52 453.92 189.55L453.92 189.55L459.75 187.14Q462.05 186.18 464.06 186.63Q466.06 187.08 466.97 188.80L466.97 188.80Q467.93 190.67 469.09 192.49Q470.24 194.31 471.84 195.73Q473.45 197.14 475.61 198.03Q477.78 198.91 480.77 198.91L480.77 198.91Q484.15 198.91 486.66 197.81Q489.17 196.72 490.86 194.95Q492.54 193.18 493.37 191.02Q494.20 188.85 494.20 186.66L494.20 186.66Q494.20 183.88 493.61 181.60Q493.03 179.33 491.15 177.72Q489.28 176.12 485.78 175.21Q482.27 174.30 476.39 174.30L476.39 174.30L476.39 164.88Q481.26 164.83 484.47 163.97Q487.68 163.12 489.58 161.59Q491.47 160.07 492.22 157.93Q492.97 155.79 492.97 153.22L492.97 153.22Q492.97 147.76 489.92 144.93Q486.87 142.09 481.79 142.09L481.79 142.09Q479.44 142.09 477.46 142.76Q475.48 143.43 473.90 144.63Q472.32 145.84 471.25 147.44Q470.18 149.05 469.65 150.97L469.65 150.97Q468.74 153.43 467.27 154.24Q465.79 155.04 463.12 154.61L463.12 154.61ZM527.00 180.02L550.54 180.02L550.54 154.72Q550.54 151.13 551.02 146.80L551.02 146.80L527.00 180.02ZM562.04 180.02L571.78 180.02L571.78 187.67Q571.78 188.74 571.08 189.52Q570.39 190.29 569.10 190.29L569.10 190.29L562.04 190.29L562.04 209.18L550.54 209.18L550.54 190.29L517.90 190.29Q516.57 190.29 515.55 189.47Q514.53 188.64 514.27 187.41L514.27 187.41L512.87 180.72L549.52 131.77L562.04 131.77L562.04 180.02ZM615.97 199.28L629.88 199.28L629.88 209.18L587.08 209.18L587.08 199.28L602.75 199.28L602.75 154.18Q602.75 151.51 602.92 148.67L602.92 148.67L591.79 157.98Q590.82 158.73 589.89 158.92Q588.95 159.10 588.12 158.94Q587.29 158.78 586.65 158.38Q586.01 157.98 585.69 157.50L585.69 157.50L581.52 151.78L605.11 131.71L615.97 131.71L615.97 199.28Z" fill="#999999"/></svg>