<svg xmlns="http://www.w3.org/2000/svg" xmlns:xlink="http://www.w3.org/1999/xlink" width="392" height="746" viewBox="0 0 392 746"><rect width="100%" height="100%" fill="#DDDDDD"/><path d="M81.84 365.13L78.39 364.52Q78.79 361.76 79.93 359.68Q81.07 357.60 82.78 356.21Q84.49 354.82 86.70 354.12Q88.91 353.42 91.46 353.42L91.46 353.42Q94.11 353.42 96.24 354.17Q98.37 354.93 99.88 356.27Q101.39 357.60 102.20 359.41Q103.01 361.21 103.01 363.30L103.01 363.30Q103.01 365.13 102.60 366.52Q102.19 367.91 101.42 368.95Q100.65 369.98 99.51 370.69Q98.37 371.41 96.94 371.89L96.94 371.89Q100.39 372.97 102.08 375.20Q103.78 377.43 103.78 380.79L103.78 380.79Q103.78 383.65 102.72 385.85Q101.66 388.05 99.86 389.55Q98.06 391.05 95.68 391.81Q93.31 392.58 90.66 392.58L90.66 392.58Q87.77 392.58 85.63 391.92Q83.48 391.26 81.89 389.96Q80.30 388.66 79.19 386.78Q78.07 384.90 77.28 382.43L77.28 382.43L80.17 381.24Q81.31 380.76 82.30 380.99Q83.30 381.21 83.75 382.06L83.75 382.06Q84.22 382.99 84.79 383.89Q85.36 384.79 86.16 385.49Q86.95 386.20 88.03 386.63Q89.10 387.07 90.58 387.07L90.58 387.07Q92.25 387.07 93.50 386.53Q94.74 385.98 95.58 385.11Q96.41 384.24 96.82 383.16Q97.23 382.09 97.23 381.00L97.23 381.00Q97.23 379.63 96.94 378.50Q96.65 377.37 95.72 376.58Q94.80 375.78 93.06 375.33Q91.32 374.88 88.41 374.88L88.41 374.88L88.41 370.22Q90.82 370.19 92.41 369.77Q94.00 369.34 94.94 368.59Q95.88 367.83 96.25 366.77Q96.62 365.71 96.62 364.44L96.62 364.44Q96.62 361.74 95.11 360.33Q93.60 358.93 91.09 358.93L91.09 358.93Q89.92 358.93 88.94 359.26Q87.96 359.59 87.18 360.19Q86.40 360.78 85.87 361.58Q85.34 362.37 85.07 363.33L85.07 363.33Q84.62 364.55 83.89 364.94Q83.16 365.34 81.84 365.13L81.84 365.13ZM115.02 365.34L115.02 365.34Q115.02 368.55 116.67 370.23Q118.33 371.91 121.38 371.91L121.38 371.91Q122.97 371.91 124.21 371.41Q125.46 370.91 126.30 370.03Q127.15 369.16 127.59 367.96Q128.03 366.77 128.03 365.39L128.03 365.39Q128.03 363.83 127.55 362.60Q127.07 361.37 126.20 360.52Q125.32 359.67 124.12 359.22Q122.91 358.77 121.48 358.77L121.48 358.77Q120.00 358.77 118.81 359.26Q117.61 359.75 116.76 360.62Q115.92 361.50 115.47 362.70Q115.02 363.91 115.02 365.34ZM111.81 392.16L123.71 377.29Q124.16 376.74 124.56 376.21Q124.95 375.68 125.32 375.15L125.32 375.15Q124.00 375.99 122.41 376.43Q120.82 376.87 119.07 376.87L119.07 376.87Q117.08 376.87 115.17 376.18Q113.27 375.49 111.78 374.10Q110.30 372.71 109.38 370.65Q108.47 368.60 108.47 365.84L108.47 365.84Q108.47 363.27 109.42 361.02Q110.38 358.77 112.10 357.07Q113.82 355.38 116.23 354.40Q118.65 353.42 121.56 353.42L121.56 353.42Q124.50 353.42 126.85 354.34Q129.19 355.27 130.85 356.94Q132.51 358.61 133.39 360.94Q134.28 363.27 134.28 366.06L134.28 366.06Q134.28 367.83 133.98 369.42Q133.67 371.01 133.12 372.48Q132.56 373.95 131.76 375.36Q130.97 376.76 129.99 378.14L129.99 378.14L121.22 390.65Q120.77 391.28 119.87 391.72Q118.96 392.16 117.82 392.16L117.82 392.16L111.81 392.16ZM153.18 386.06L163.01 386.06Q164.07 386.06 164.69 386.66Q165.31 387.26 165.31 388.24L165.31 388.24L165.31 392.16L139.03 392.16L139.03 389.99Q139.03 389.32 139.30 388.60Q139.58 387.87 140.19 387.28L140.19 387.28L151.82 375.62Q153.28 374.14 154.43 372.79Q155.59 371.44 156.36 370.11Q157.12 368.79 157.54 367.42Q157.95 366.06 157.95 364.55L157.95 364.55Q157.95 363.17 157.55 362.12Q157.15 361.07 156.42 360.36Q155.69 359.64 154.67 359.29Q153.65 358.93 152.38 358.93L152.38 358.93Q151.22 358.93 150.22 359.26Q149.23 359.59 148.46 360.19Q147.69 360.78 147.16 361.58Q146.63 362.37 146.37 363.33L146.37 363.33Q145.91 364.55 145.20 364.94Q144.48 365.34 143.13 365.13L143.13 365.13L139.69 364.52Q140.09 361.76 141.22 359.68Q142.36 357.60 144.07 356.21Q145.78 354.82 148.00 354.12Q150.21 353.42 152.75 353.42L152.75 353.42Q155.40 353.42 157.60 354.20Q159.80 354.98 161.36 356.41Q162.93 357.84 163.80 359.86Q164.68 361.87 164.68 364.33L164.68 364.33Q164.68 366.45 164.05 368.26Q163.43 370.06 162.38 371.70Q161.34 373.34 159.93 374.88Q158.53 376.42 156.99 378.01L156.99 378.01L148.35 386.83Q149.60 386.46 150.83 386.26Q152.06 386.06 153.18 386.06L153.18 386.06ZM208.51 383.39L205.04 386.81L196.05 377.82L186.99 386.86L183.52 383.44L192.58 374.35L183.94 365.71L187.39 362.27L196.03 370.91L204.61 362.32L208.11 365.77L199.50 374.38L208.51 383.39ZM226.71 353.84L253.19 353.84L253.19 356.68Q253.19 357.95 252.92 358.73Q252.66 359.51 252.39 360.04L252.39 360.04L237.87 389.93Q237.42 390.86 236.60 391.51Q235.78 392.16 234.40 392.16L234.40 392.16L229.66 392.16L244.47 362.88Q244.97 361.98 245.46 361.22Q245.95 360.47 246.56 359.78L246.56 359.78L228.22 359.78Q227.61 359.78 227.16 359.33Q226.71 358.88 226.71 358.27L226.71 358.27L226.71 353.84ZM262.20 377.72L273.86 377.72L273.86 365.18Q273.86 363.41 274.10 361.26L274.10 361.26L262.20 377.72ZM279.55 377.72L284.38 377.72L284.38 381.51Q284.38 382.04 284.03 382.42Q283.69 382.81 283.05 382.81L283.05 382.81L279.55 382.81L279.55 392.16L273.86 392.16L273.86 382.81L257.69 382.81Q257.03 382.81 256.53 382.39Q256.02 381.98 255.89 381.37L255.89 381.37L255.20 378.06L273.35 353.81L279.55 353.81L279.55 377.72ZM310.93 353.84L299.56 367.75L298.24 369.40Q299.35 368.84 300.64 368.53Q301.92 368.23 303.40 368.23L303.40 368.23Q305.58 368.23 307.63 368.95Q309.69 369.66 311.25 371.11Q312.81 372.55 313.77 374.70Q314.72 376.84 314.72 379.70L314.72 379.70Q314.72 382.38 313.74 384.73Q312.76 387.07 310.98 388.82Q309.21 390.57 306.70 391.58Q304.20 392.58 301.18 392.58L301.18 392.58Q298.10 392.58 295.67 391.60Q293.23 390.62 291.51 388.86Q289.78 387.10 288.87 384.62Q287.95 382.14 287.95 379.12L287.95 379.12Q287.95 376.42 289.05 373.57Q290.15 370.72 292.46 367.65L292.46 367.65L301.60 355.38Q302.08 354.74 302.99 354.29Q303.91 353.84 305.10 353.84L305.10 353.84L310.93 353.84ZM301.05 387.23L301.05 387.23Q302.61 387.23 303.92 386.70Q305.23 386.17 306.17 385.22Q307.11 384.26 307.64 382.98Q308.17 381.69 308.17 380.18L308.17 380.18Q308.17 378.54 307.67 377.23Q307.17 375.91 306.24 375.00Q305.31 374.09 304.01 373.61Q302.72 373.13 301.15 373.13L301.15 373.13Q299.59 373.13 298.32 373.66Q297.04 374.19 296.14 375.13Q295.24 376.07 294.74 377.36Q294.24 378.64 294.24 380.13L294.24 380.13Q294.24 381.72 294.67 383.03Q295.11 384.34 295.97 385.27Q296.83 386.20 298.10 386.71Q299.38 387.23 301.05 387.23Z" fill="#999999"/></svg>