<svg xmlns="http://www.w3.org/2000/svg" xmlns:xlink="http://www.w3.org/1999/xlink" width="500" height="300" viewBox="0 0 500 300"><rect width="100%" height="100%" fill="#DDDDDD"/><path d="M108.29 132.78L106.53 143.17Q108.19 142.82 109.71 142.67Q111.22 142.51 112.64 142.51L112.64 142.51Q116.57 142.51 119.57 143.69Q122.57 144.86 124.61 146.93Q126.65 149.00 127.68 151.78Q128.72 154.55 128.72 157.76L128.72 157.76Q128.72 161.73 127.32 165.01Q125.92 168.28 123.44 170.61Q120.95 172.94 117.55 174.22Q114.16 175.50 110.15 175.50L110.15 175.50Q107.81 175.50 105.70 175.01Q103.60 174.53 101.75 173.72Q99.91 172.91 98.34 171.86Q96.77 170.80 95.53 169.63L95.53 169.63L98.15 166.01Q98.98 164.84 100.32 164.84L100.32 164.84Q101.18 164.84 102.08 165.39Q102.98 165.94 104.13 166.59Q105.29 167.25 106.86 167.80Q108.43 168.35 110.64 168.35L110.64 168.35Q112.98 168.35 114.78 167.59Q116.57 166.84 117.76 165.47Q118.95 164.11 119.56 162.23Q120.16 160.35 120.16 158.14L120.16 158.14Q120.16 154.07 117.80 151.78Q115.43 149.48 110.81 149.48L110.81 149.48Q107.26 149.48 103.53 150.79L103.53 150.79L98.22 149.28L102.36 125.06L126.99 125.06L126.99 128.68Q126.99 130.51 125.85 131.65Q124.71 132.78 121.99 132.78L121.99 132.78L108.29 132.78ZM170.84 150L170.84 150Q170.84 156.52 169.44 161.33Q168.05 166.15 165.58 169.29Q163.11 172.43 159.75 173.96Q156.38 175.50 152.49 175.50L152.49 175.50Q148.59 175.50 145.26 173.96Q141.93 172.43 139.48 169.29Q137.03 166.15 135.65 161.33Q134.27 156.52 134.27 150L134.27 150Q134.27 143.44 135.65 138.65Q137.03 133.85 139.48 130.71Q141.93 127.57 145.26 126.04Q148.59 124.50 152.49 124.50L152.49 124.50Q156.38 124.50 159.75 126.04Q163.11 127.57 165.58 130.71Q168.05 133.85 169.44 138.65Q170.84 143.44 170.84 150ZM162.04 150L162.04 150Q162.04 144.58 161.25 141.03Q160.46 137.48 159.13 135.37Q157.80 133.27 156.07 132.42Q154.35 131.58 152.49 131.58L152.49 131.58Q150.66 131.58 148.95 132.42Q147.24 133.27 145.93 135.37Q144.62 137.48 143.84 141.03Q143.07 144.58 143.07 150L143.07 150Q143.07 155.42 143.84 158.97Q144.62 162.52 145.93 164.63Q147.24 166.73 148.95 167.58Q150.66 168.42 152.49 168.42L152.49 168.42Q154.35 168.42 156.07 167.58Q157.80 166.73 159.13 164.63Q160.46 162.52 161.25 158.97Q162.04 155.42 162.04 150ZM210.86 150L210.86 150Q210.86 156.52 209.46 161.33Q208.07 166.15 205.60 169.29Q203.13 172.43 199.77 173.96Q196.40 175.50 192.51 175.50L192.51 175.50Q188.61 175.50 185.28 173.96Q181.95 172.43 179.50 169.29Q177.05 166.15 175.67 161.33Q174.29 156.52 174.29 150L174.29 150Q174.29 143.44 175.67 138.65Q177.05 133.85 179.50 130.71Q181.95 127.57 185.28 126.04Q188.61 124.50 192.51 124.50L192.51 124.50Q196.40 124.50 199.77 126.04Q203.13 127.57 205.60 130.71Q208.07 133.85 209.46 138.65Q210.86 143.44 210.86 150ZM202.06 150L202.06 150Q202.06 144.58 201.27 141.03Q200.48 137.48 199.15 135.37Q197.82 133.27 196.09 132.42Q194.37 131.58 192.51 131.58L192.51 131.58Q190.68 131.58 188.97 132.42Q187.26 133.27 185.95 135.37Q184.64 137.48 183.86 141.03Q183.09 144.58 183.09 150L183.09 150Q183.09 155.42 183.86 158.97Q184.64 162.52 185.95 164.63Q187.26 166.73 188.97 167.58Q190.68 168.42 192.51 168.42L192.51 168.42Q194.37 168.42 196.09 167.58Q197.82 166.73 199.15 164.63Q200.48 162.52 201.27 158.97Q202.06 155.42 202.06 150ZM265.65 163.52L261.13 167.97L249.43 156.28L237.63 168.04L233.11 163.59L244.91 151.76L233.66 140.51L238.15 136.03L249.40 147.27L260.57 136.10L265.13 140.58L253.92 151.79L265.65 163.52ZM294.35 139.75L289.86 138.96Q290.38 135.37 291.87 132.66Q293.35 129.96 295.57 128.14Q297.80 126.33 300.68 125.42Q303.56 124.50 306.87 124.50L306.87 124.50Q310.32 124.50 313.10 125.49Q315.88 126.47 317.84 128.21Q319.81 129.96 320.86 132.30Q321.92 134.65 321.92 137.37L321.92 137.37Q321.92 139.75 321.38 141.56Q320.85 143.38 319.85 144.72Q318.84 146.07 317.36 147.00Q315.88 147.93 314.01 148.55L314.01 148.55Q318.50 149.97 320.71 152.86Q322.92 155.76 322.92 160.14L322.92 160.14Q322.92 163.87 321.54 166.73Q320.16 169.60 317.81 171.55Q315.46 173.49 312.38 174.50Q309.29 175.50 305.84 175.50L305.84 175.50Q302.08 175.50 299.28 174.63Q296.49 173.77 294.42 172.08Q292.35 170.39 290.90 167.94Q289.45 165.49 288.42 162.28L288.42 162.28L292.18 160.73Q293.66 160.11 294.95 160.40Q296.25 160.69 296.83 161.80L296.83 161.80Q297.45 163.01 298.20 164.18Q298.94 165.35 299.97 166.27Q301.01 167.18 302.41 167.75Q303.80 168.32 305.73 168.32L305.73 168.32Q307.91 168.32 309.53 167.61Q311.15 166.91 312.24 165.77Q313.32 164.63 313.86 163.23Q314.39 161.83 314.39 160.42L314.39 160.42Q314.39 158.63 314.01 157.16Q313.64 155.69 312.43 154.66Q311.22 153.62 308.96 153.04Q306.70 152.45 302.91 152.45L302.91 152.45L302.91 146.38Q306.05 146.34 308.12 145.79Q310.19 145.24 311.41 144.26Q312.63 143.27 313.12 141.89Q313.60 140.51 313.60 138.86L313.60 138.86Q313.60 135.34 311.63 133.51Q309.67 131.68 306.39 131.68L306.39 131.68Q304.87 131.68 303.60 132.11Q302.32 132.54 301.30 133.32Q300.28 134.10 299.59 135.13Q298.90 136.17 298.56 137.41L298.56 137.41Q297.97 138.99 297.02 139.51Q296.07 140.03 294.35 139.75L294.35 139.75ZM364.45 150L364.45 150Q364.45 156.52 363.06 161.33Q361.66 166.15 359.19 169.29Q356.73 172.43 353.36 173.96Q350.00 175.50 346.10 175.50L346.10 175.50Q342.20 175.50 338.87 173.96Q335.54 172.43 333.09 169.29Q330.64 166.15 329.26 161.33Q327.88 156.52 327.88 150L327.88 150Q327.88 143.44 329.26 138.65Q330.64 133.85 333.09 130.71Q335.54 127.57 338.87 126.04Q342.20 124.50 346.10 124.50L346.10 124.50Q350.00 124.50 353.36 126.04Q356.73 127.57 359.19 130.71Q361.66 133.85 363.06 138.65Q364.45 143.44 364.45 150ZM355.66 150L355.66 150Q355.66 144.58 354.86 141.03Q354.07 137.48 352.74 135.37Q351.41 133.27 349.69 132.42Q347.96 131.58 346.10 131.58L346.10 131.58Q344.27 131.58 342.56 132.42Q340.86 133.27 339.54 135.37Q338.23 137.48 337.46 141.03Q336.68 144.58 336.68 150L336.68 150Q336.68 155.42 337.46 158.97Q338.23 162.52 339.54 164.63Q340.86 166.73 342.56 167.58Q344.27 168.42 346.10 168.42L346.10 168.42Q347.96 168.42 349.69 167.58Q351.41 166.73 352.74 164.63Q354.07 162.52 354.86 158.97Q355.66 155.42 355.66 150ZM404.47 150L404.47 150Q404.47 156.52 403.08 161.33Q401.68 166.15 399.21 169.29Q396.75 172.43 393.38 173.96Q390.02 175.50 386.12 175.50L386.12 175.50Q382.22 175.50 378.89 173.96Q375.56 172.43 373.11 169.29Q370.66 166.15 369.28 161.33Q367.90 156.52 367.90 150L367.90 150Q367.90 143.44 369.28 138.65Q370.66 133.85 373.11 130.71Q375.56 127.57 378.89 126.04Q382.22 124.50 386.12 124.50L386.12 124.50Q390.02 124.50 393.38 126.04Q396.75 127.57 399.21 130.71Q401.68 133.85 403.08 138.65Q404.47 143.44 404.47 150ZM395.68 150L395.68 150Q395.68 144.58 394.88 141.03Q394.09 137.48 392.76 135.37Q391.43 133.27 389.71 132.42Q387.98 131.58 386.12 131.58L386.12 131.58Q384.29 131.58 382.58 132.42Q380.88 133.27 379.56 135.37Q378.25 137.48 377.48 141.03Q376.70 144.58 376.70 150L376.70 150Q376.70 155.42 377.48 158.97Q378.25 162.52 379.56 164.63Q380.88 166.73 382.58 167.58Q384.29 168.42 386.12 168.42L386.12 168.42Q387.98 168.42 389.71 167.58Q391.43 166.73 392.76 164.63Q394.09 162.52 394.88 158.97Q395.68 155.42 395.68 150Z" fill="#999999"/></svg>