<svg xmlns="http://www.w3.org/2000/svg" xmlns:xlink="http://www.w3.org/1999/xlink" width="392" height="373" viewBox="0 0 392 373"><rect width="100%" height="100%" fill="#DDDDDD"/><path d="M82.21 178.63L78.76 178.02Q79.16 175.26 80.30 173.18Q81.44 171.10 83.15 169.71Q84.86 168.32 87.07 167.62Q89.28 166.92 91.83 166.92L91.83 166.92Q94.48 166.92 96.61 167.67Q98.75 168.43 100.26 169.77Q101.77 171.10 102.57 172.91Q103.38 174.71 103.38 176.80L103.38 176.80Q103.38 178.63 102.97 180.02Q102.56 181.41 101.79 182.45Q101.02 183.48 99.88 184.19Q98.75 184.91 97.31 185.39L97.31 185.39Q100.76 186.47 102.45 188.70Q104.15 190.93 104.15 194.29L104.15 194.29Q104.15 197.15 103.09 199.35Q102.03 201.55 100.23 203.05Q98.43 204.55 96.06 205.31Q93.68 206.08 91.03 206.08L91.03 206.08Q88.14 206.08 86.00 205.42Q83.85 204.76 82.26 203.46Q80.67 202.16 79.56 200.28Q78.45 198.40 77.65 195.93L77.65 195.93L80.54 194.74Q81.68 194.26 82.67 194.49Q83.67 194.71 84.12 195.56L84.12 195.56Q84.59 196.49 85.16 197.39Q85.73 198.29 86.53 198.99Q87.32 199.70 88.40 200.13Q89.47 200.57 90.95 200.57L90.95 200.57Q92.62 200.57 93.87 200.03Q95.11 199.48 95.95 198.61Q96.78 197.74 97.19 196.66Q97.61 195.59 97.61 194.50L97.61 194.50Q97.61 193.12 97.31 192.00Q97.02 190.87 96.09 190.08Q95.17 189.28 93.43 188.83Q91.70 188.38 88.78 188.38L88.78 188.38L88.78 183.72Q91.19 183.69 92.78 183.27Q94.37 182.84 95.31 182.09Q96.25 181.33 96.63 180.27Q97.00 179.21 97.00 177.94L97.00 177.94Q97.00 175.24 95.49 173.83Q93.97 172.43 91.46 172.43L91.46 172.43Q90.29 172.43 89.31 172.76Q88.33 173.09 87.55 173.69Q86.77 174.28 86.24 175.08Q85.71 175.87 85.44 176.83L85.44 176.83Q84.99 178.05 84.26 178.44Q83.53 178.84 82.21 178.63L82.21 178.63ZM115.39 178.84L115.39 178.84Q115.39 182.05 117.04 183.73Q118.70 185.41 121.75 185.41L121.75 185.41Q123.34 185.41 124.58 184.91Q125.83 184.41 126.68 183.53Q127.52 182.66 127.96 181.46Q128.40 180.27 128.40 178.89L128.40 178.89Q128.40 177.33 127.92 176.10Q127.44 174.87 126.57 174.02Q125.70 173.17 124.49 172.72Q123.28 172.27 121.85 172.27L121.85 172.27Q120.37 172.27 119.18 172.76Q117.98 173.25 117.14 174.12Q116.29 175.00 115.84 176.20Q115.39 177.41 115.39 178.84ZM112.18 205.66L124.08 190.79Q124.53 190.24 124.93 189.71Q125.32 189.18 125.70 188.65L125.70 188.65Q124.37 189.49 122.78 189.93Q121.19 190.37 119.44 190.37L119.44 190.37Q117.45 190.37 115.55 189.68Q113.64 188.99 112.15 187.60Q110.67 186.21 109.76 184.15Q108.84 182.10 108.84 179.34L108.84 179.34Q108.84 176.77 109.80 174.52Q110.75 172.27 112.47 170.57Q114.19 168.88 116.61 167.90Q119.02 166.92 121.93 166.92L121.93 166.92Q124.87 166.92 127.22 167.84Q129.56 168.77 131.22 170.44Q132.88 172.11 133.76 174.44Q134.65 176.77 134.65 179.56L134.65 179.56Q134.65 181.33 134.35 182.92Q134.04 184.51 133.49 185.98Q132.93 187.45 132.13 188.86Q131.34 190.26 130.36 191.64L130.36 191.64L121.59 204.15Q121.14 204.78 120.24 205.22Q119.34 205.66 118.20 205.66L118.20 205.66L112.18 205.66ZM153.55 199.56L163.38 199.56Q164.44 199.56 165.06 200.16Q165.68 200.76 165.68 201.74L165.68 201.74L165.68 205.66L139.40 205.66L139.40 203.49Q139.40 202.82 139.67 202.10Q139.95 201.37 140.56 200.78L140.56 200.78L152.20 189.12Q153.65 187.64 154.81 186.29Q155.96 184.94 156.73 183.61Q157.50 182.29 157.91 180.92Q158.32 179.56 158.32 178.05L158.32 178.05Q158.32 176.67 157.92 175.62Q157.52 174.57 156.79 173.86Q156.06 173.14 155.04 172.79Q154.02 172.43 152.75 172.43L152.75 172.43Q151.59 172.43 150.59 172.76Q149.60 173.09 148.83 173.69Q148.06 174.28 147.53 175.08Q147.00 175.87 146.74 176.83L146.74 176.83Q146.29 178.05 145.57 178.44Q144.86 178.84 143.50 178.63L143.50 178.63L140.06 178.02Q140.46 175.26 141.60 173.18Q142.74 171.10 144.44 169.71Q146.15 168.32 148.37 167.62Q150.58 166.92 153.12 166.92L153.12 166.92Q155.77 166.92 157.97 167.70Q160.17 168.48 161.74 169.91Q163.30 171.34 164.17 173.36Q165.05 175.37 165.05 177.83L165.05 177.83Q165.05 179.95 164.43 181.76Q163.80 183.56 162.76 185.20Q161.71 186.84 160.30 188.38Q158.90 189.92 157.36 191.51L157.36 191.51L148.72 200.33Q149.97 199.96 151.20 199.76Q152.43 199.56 153.55 199.56L153.55 199.56ZM208.88 196.89L205.41 200.31L196.42 191.32L187.36 200.36L183.89 196.94L192.95 187.85L184.31 179.21L187.76 175.77L196.40 184.41L204.98 175.82L208.48 179.27L199.87 187.88L208.88 196.89ZM230.93 178.63L227.48 178.02Q227.88 175.26 229.02 173.18Q230.16 171.10 231.87 169.71Q233.58 168.32 235.79 167.62Q238.00 166.92 240.55 166.92L240.55 166.92Q243.20 166.92 245.33 167.67Q247.46 168.43 248.97 169.77Q250.48 171.10 251.29 172.91Q252.10 174.71 252.10 176.80L252.10 176.80Q252.10 178.63 251.69 180.02Q251.28 181.41 250.51 182.45Q249.74 183.48 248.60 184.19Q247.46 184.91 246.03 185.39L246.03 185.39Q249.48 186.47 251.17 188.70Q252.87 190.93 252.87 194.29L252.87 194.29Q252.87 197.15 251.81 199.35Q250.75 201.55 248.95 203.05Q247.15 204.55 244.77 205.31Q242.40 206.08 239.75 206.08L239.75 206.08Q236.86 206.08 234.72 205.42Q232.57 204.76 230.98 203.46Q229.39 202.16 228.28 200.28Q227.16 198.40 226.37 195.93L226.37 195.93L229.26 194.74Q230.40 194.26 231.39 194.49Q232.38 194.71 232.84 195.56L232.84 195.56Q233.31 196.49 233.88 197.39Q234.45 198.29 235.25 198.99Q236.04 199.70 237.11 200.13Q238.19 200.57 239.67 200.57L239.67 200.57Q241.34 200.57 242.59 200.03Q243.83 199.48 244.67 198.61Q245.50 197.74 245.91 196.66Q246.32 195.59 246.32 194.50L246.32 194.50Q246.32 193.12 246.03 192.00Q245.74 190.87 244.81 190.08Q243.89 189.28 242.15 188.83Q240.41 188.38 237.50 188.38L237.50 188.38L237.50 183.72Q239.91 183.69 241.50 183.27Q243.09 182.84 244.03 182.09Q244.97 181.33 245.34 180.27Q245.71 179.21 245.71 177.94L245.71 177.94Q245.71 175.24 244.20 173.83Q242.69 172.43 240.18 172.43L240.18 172.43Q239.01 172.43 238.03 172.76Q237.05 173.09 236.27 173.69Q235.49 174.28 234.96 175.08Q234.43 175.87 234.16 176.83L234.16 176.83Q233.71 178.05 232.98 178.44Q232.25 178.84 230.93 178.63L230.93 178.63ZM257.82 167.34L284.30 167.34L284.30 170.18Q284.30 171.45 284.03 172.23Q283.77 173.01 283.50 173.54L283.50 173.54L268.98 203.43Q268.53 204.36 267.71 205.01Q266.89 205.66 265.51 205.66L265.51 205.66L260.77 205.66L275.58 176.38Q276.08 175.48 276.57 174.72Q277.06 173.97 277.67 173.28L277.67 173.28L259.34 173.28Q258.73 173.28 258.28 172.83Q257.82 172.38 257.82 171.77L257.82 171.77L257.82 167.34ZM292.41 178.63L288.96 178.02Q289.36 175.26 290.50 173.18Q291.64 171.10 293.35 169.71Q295.06 168.32 297.27 167.62Q299.48 166.92 302.03 166.92L302.03 166.92Q304.68 166.92 306.81 167.67Q308.94 168.43 310.45 169.77Q311.96 171.10 312.77 172.91Q313.58 174.71 313.58 176.80L313.58 176.80Q313.58 178.63 313.17 180.02Q312.76 181.41 311.99 182.45Q311.22 183.48 310.08 184.19Q308.94 184.91 307.51 185.39L307.51 185.39Q310.96 186.47 312.65 188.70Q314.35 190.93 314.35 194.29L314.35 194.29Q314.35 197.15 313.29 199.35Q312.23 201.55 310.43 203.05Q308.63 204.55 306.25 205.31Q303.88 206.08 301.23 206.08L301.23 206.08Q298.34 206.08 296.20 205.42Q294.05 204.76 292.46 203.46Q290.87 202.16 289.76 200.28Q288.64 198.40 287.85 195.93L287.85 195.93L290.74 194.74Q291.88 194.26 292.87 194.49Q293.86 194.71 294.31 195.56L294.31 195.56Q294.79 196.49 295.36 197.39Q295.93 198.29 296.73 198.99Q297.52 199.70 298.59 200.13Q299.67 200.57 301.15 200.57L301.15 200.57Q302.82 200.57 304.07 200.03Q305.31 199.48 306.15 198.61Q306.98 197.74 307.39 196.66Q307.80 195.59 307.80 194.50L307.80 194.50Q307.80 193.12 307.51 192.00Q307.22 190.87 306.29 190.08Q305.37 189.28 303.63 188.83Q301.89 188.38 298.98 188.38L298.98 188.38L298.98 183.72Q301.39 183.69 302.98 183.27Q304.57 182.84 305.51 182.09Q306.45 181.33 306.82 180.27Q307.19 179.21 307.19 177.94L307.19 177.94Q307.19 175.24 305.68 173.83Q304.17 172.43 301.66 172.43L301.66 172.43Q300.49 172.43 299.51 172.76Q298.53 173.09 297.75 173.69Q296.97 174.28 296.44 175.08Q295.91 175.87 295.64 176.83L295.64 176.83Q295.19 178.05 294.46 178.44Q293.73 178.84 292.41 178.63L292.41 178.63Z" fill="#999999"/></svg>