<svg width="71" height="70" viewBox="0 0 71 70" fill="none" xmlns="http://www.w3.org/2000/svg">
<rect x="28.3698" width="3.54623" height="70" fill="#F9F9F9"/>
<rect x="38.1219" width="3.54623" height="41.125" fill="#F9F9F9"/>
<rect x="38.1219" y="47.25" width="3.54623" height="22.75" fill="#F9F9F9"/>
<rect x="57.6262" y="47.25" width="3.54623" height="13.125" fill="#F9F9F9"/>
<rect x="67.3783" y="37.625" width="3.54623" height="32.375" fill="#F9F9F9"/>
<rect x="70.9246" y="37.625" width="3.5" height="32.8026" transform="rotate(90 70.9246 37.625)" fill="#F9F9F9"/>
<rect x="70.9246" y="66.5" width="3.5" height="32.8026" transform="rotate(90 70.9246 66.5)" fill="#F9F9F9"/>
<rect x="61.1724" y="47.25" width="3.5" height="23.0505" transform="rotate(90 61.1724 47.25)" fill="#F9F9F9"/>
<rect x="61.1724" y="56.875" width="3.5" height="11.5252" transform="rotate(90 61.1724 56.875)" fill="#F9F9F9"/>
<rect x="41.6682" width="3.5" height="13.2983" transform="rotate(90 41.6682 0)" fill="#F9F9F9"/>
<rect x="49.6241" y="1.75" width="19.5505" height="28.875" stroke="#F9F9F9" stroke-width="3.5"/>
<rect x="1.75" y="1.75" width="18.6639" height="28.875" stroke="#F9F9F9" stroke-width="3.5"/>
<rect x="1.75" y="39.375" width="18.6639" height="28.875" stroke="#F9F9F9" stroke-width="3.5"/>
</svg>
